<svg xmlns="http://www.w3.org/2000/svg" viewBox="0 0 388.47 391.28">
  <g fill="black">
    <path d="M139.98,330.28c.02.06.04.13.06.19.02.06.1.29.08.21-.04-.13-.09-.26-.14-.4Z"/>
    <path d="M116.28,335.35c.07.05.13.08.12.05,0-.01-.05-.03-.12-.05Z"/>
    <path d="M42.33,244.45c8.53,34.42,28.83,64.69,57.06,86.15,3.73,2.78,9.77,3.89,12.67,4.16,2.03.22,3.43.42,4.03.54.38.54.64,1.36.89,1.99.72,2.14,1.76,4.29,3.28,5.92,1.21,1.4,2.85,2.68,4.4,3.64,8.91,5.13,18.92,7.09,28.6,9.19,9.88,1.92,19.69,3.31,30.03,3.85,96.1,3.16,182.93-78.57,164.79-177.54-4.73-30.53-19.93-59.87-43.54-80.06-7.94-6.83-16.11-13.88-27.54-13.32l-5.42,9.58c3.03,6.82,8.25,11.13,13.89,15.45,22.5,17.41,36.75,43.77,40.76,71.82,14.19,78.98-52.27,145.54-128.8,150.07-13.25.88-26.28-.83-39.45-3.42-6.2-1.19-13.97-3.24-19.15-5.37-2.72-6.36-7.53-11.99-14.24-14.27-5.34-1.83-8.83-1.55-12-2.3-32.56-25.11-50.11-61.6-52.03-102.62-4.9-74.89,54.9-128.41,127.54-129.13,11.71-.13,23,.38,34.79-1.17,0,0,2.57-10.02,2.57-10.02-12.79-8.91-28.87-10.45-44-9.74-36.95,1.46-73.74,15.26-100.9,40.88-40.7,37.76-51.37,93.06-38.2,145.69Z"/>
    <path fill="none" stroke="black" stroke-linecap="round" stroke-linejoin="round" stroke-width="7" d="M297.67,31.4c-39.83-1.48-50.58,36.93-53.15,50.74-.29,1.56,1.58,2.58,2.74,1.49,4.5-4.2,12.64-11.24,20.03-14.68,17.4-8.1,34.04,5.35,51.59-4.31,17.28-9.51,9.75-32.1-21.21-33.25Z"/>
    <circle cx="84.86" cy="213.03" r="3.12"/><circle cx="111.36" cy="191.73" r="3.12"/><circle cx="133.8" cy="173.27" r="3.12"/><circle cx="154.4" cy="157.29" r="3.12"/><circle cx="177.26" cy="142.63" r="3.12"/><circle cx="199.58" cy="130.86" r="3.12"/><circle cx="227.34" cy="121.4" r="3.12"/>
    <circle cx="89.59" cy="246.68" r="1.5"/><circle cx="114.52" cy="222.19" r="1.5"/><circle cx="141.35" cy="199.47" r="1.5"/><circle cx="164.59" cy="182.72" r="1.5"/><circle cx="186.65" cy="165.27" r="1.5"/><circle cx="208.63" cy="152.22" r="1.5"/><circle cx="234.09" cy="141.52" r="1.5"/><circle cx="264.94" cy="128.26" r="1.5"/>
    <circle cx="89.86" cy="160.41" r="5"/><circle cx="107.35" cy="137.63" r="5"/><circle cx="127.49" cy="117.38" r="5"/><circle cx="154.4" cy="104.57" r="5"/><circle cx="185.06" cy="97.37" r="5"/>
    <circle cx="85.75" cy="188.61" r="4.01"/><circle cx="111.36" cy="164.43" r="4.01"/><circle cx="134.94" cy="143.86" r="4.01"/><circle cx="154.4" cy="128.62" r="4.01"/><circle cx="177.26" cy="117.38" r="4.01"/><circle cx="207.97" cy="109.57" r="4.01"/>
  </g>
</svg>
